<mxfile host="app.diagrams.net" modified="2024-04-02T06:11:38.439Z" agent="Mozilla/5.0 (Windows NT 10.0; Win64; x64) AppleWebKit/537.36 (KHTML, like Gecko) Chrome/123.0.0.0 Safari/537.36" version="24.2.1" etag="eGl3jVRGSwgczkeO8aeW" type="device">
  <diagram id="TUuY0Dn7aATj2u4G8uoD" name="Page-1">
    <mxGraphModel dx="2607" dy="1404" grid="1" gridSize="10" guides="1" tooltips="1" connect="1" arrows="1" fold="1" page="1" pageScale="1" pageWidth="850" pageHeight="1100" math="0" shadow="0">
      <root>
        <mxCell id="0" />
        <mxCell id="1" parent="0" />
        <mxCell id="ChsFRZMuyeAJQGLOjmsW-1" value="use case" style="swimlane;whiteSpace=wrap;html=1;" vertex="1" parent="1">
          <mxGeometry x="200" y="40" width="480" height="600" as="geometry" />
        </mxCell>
        <mxCell id="ChsFRZMuyeAJQGLOjmsW-5" value="melakukan pembayaran" style="ellipse;whiteSpace=wrap;html=1;" vertex="1" parent="ChsFRZMuyeAJQGLOjmsW-1">
          <mxGeometry x="180" y="290" width="120" height="50" as="geometry" />
        </mxCell>
        <mxCell id="ChsFRZMuyeAJQGLOjmsW-6" value="mencari layanan" style="ellipse;whiteSpace=wrap;html=1;" vertex="1" parent="ChsFRZMuyeAJQGLOjmsW-1">
          <mxGeometry x="180" y="360" width="120" height="50" as="geometry" />
        </mxCell>
        <mxCell id="ChsFRZMuyeAJQGLOjmsW-7" value="mengisi data yang diperlukan" style="ellipse;whiteSpace=wrap;html=1;" vertex="1" parent="ChsFRZMuyeAJQGLOjmsW-1">
          <mxGeometry x="180" y="430" width="120" height="50" as="geometry" />
        </mxCell>
        <mxCell id="ChsFRZMuyeAJQGLOjmsW-8" value="validasi pemasangan" style="ellipse;whiteSpace=wrap;html=1;" vertex="1" parent="ChsFRZMuyeAJQGLOjmsW-1">
          <mxGeometry x="180" y="500" width="120" height="50" as="geometry" />
        </mxCell>
        <mxCell id="ChsFRZMuyeAJQGLOjmsW-9" value="login" style="ellipse;whiteSpace=wrap;html=1;" vertex="1" parent="ChsFRZMuyeAJQGLOjmsW-1">
          <mxGeometry x="180" y="220" width="120" height="50" as="geometry" />
        </mxCell>
        <mxCell id="ChsFRZMuyeAJQGLOjmsW-10" value="cetak laporan" style="ellipse;whiteSpace=wrap;html=1;" vertex="1" parent="ChsFRZMuyeAJQGLOjmsW-1">
          <mxGeometry x="180" y="80" width="120" height="50" as="geometry" />
        </mxCell>
        <mxCell id="ChsFRZMuyeAJQGLOjmsW-11" value="validasi pembayaran" style="ellipse;whiteSpace=wrap;html=1;" vertex="1" parent="ChsFRZMuyeAJQGLOjmsW-1">
          <mxGeometry x="180" y="150" width="120" height="50" as="geometry" />
        </mxCell>
        <mxCell id="ChsFRZMuyeAJQGLOjmsW-20" style="rounded=0;orthogonalLoop=1;jettySize=auto;html=1;entryX=0;entryY=0.5;entryDx=0;entryDy=0;" edge="1" parent="1" source="ChsFRZMuyeAJQGLOjmsW-2" target="ChsFRZMuyeAJQGLOjmsW-10">
          <mxGeometry relative="1" as="geometry" />
        </mxCell>
        <mxCell id="ChsFRZMuyeAJQGLOjmsW-21" style="rounded=0;orthogonalLoop=1;jettySize=auto;html=1;" edge="1" parent="1" source="ChsFRZMuyeAJQGLOjmsW-2" target="ChsFRZMuyeAJQGLOjmsW-11">
          <mxGeometry relative="1" as="geometry" />
        </mxCell>
        <mxCell id="ChsFRZMuyeAJQGLOjmsW-22" style="rounded=0;orthogonalLoop=1;jettySize=auto;html=1;entryX=0;entryY=0;entryDx=0;entryDy=0;" edge="1" parent="1" source="ChsFRZMuyeAJQGLOjmsW-2" target="ChsFRZMuyeAJQGLOjmsW-9">
          <mxGeometry relative="1" as="geometry" />
        </mxCell>
        <mxCell id="ChsFRZMuyeAJQGLOjmsW-2" value="Actor" style="shape=umlActor;verticalLabelPosition=bottom;verticalAlign=top;html=1;outlineConnect=0;" vertex="1" parent="1">
          <mxGeometry x="90" y="130" width="30" height="60" as="geometry" />
        </mxCell>
        <mxCell id="ChsFRZMuyeAJQGLOjmsW-12" style="rounded=0;orthogonalLoop=1;jettySize=auto;html=1;entryX=1;entryY=0.5;entryDx=0;entryDy=0;" edge="1" parent="1" source="ChsFRZMuyeAJQGLOjmsW-3" target="ChsFRZMuyeAJQGLOjmsW-9">
          <mxGeometry relative="1" as="geometry" />
        </mxCell>
        <mxCell id="ChsFRZMuyeAJQGLOjmsW-13" style="rounded=0;orthogonalLoop=1;jettySize=auto;html=1;" edge="1" parent="1" source="ChsFRZMuyeAJQGLOjmsW-3" target="ChsFRZMuyeAJQGLOjmsW-5">
          <mxGeometry relative="1" as="geometry" />
        </mxCell>
        <mxCell id="ChsFRZMuyeAJQGLOjmsW-14" style="rounded=0;orthogonalLoop=1;jettySize=auto;html=1;entryX=1;entryY=0.5;entryDx=0;entryDy=0;" edge="1" parent="1" source="ChsFRZMuyeAJQGLOjmsW-3" target="ChsFRZMuyeAJQGLOjmsW-6">
          <mxGeometry relative="1" as="geometry" />
        </mxCell>
        <mxCell id="ChsFRZMuyeAJQGLOjmsW-15" style="rounded=0;orthogonalLoop=1;jettySize=auto;html=1;entryX=1;entryY=0.5;entryDx=0;entryDy=0;" edge="1" parent="1" source="ChsFRZMuyeAJQGLOjmsW-3" target="ChsFRZMuyeAJQGLOjmsW-7">
          <mxGeometry relative="1" as="geometry" />
        </mxCell>
        <mxCell id="ChsFRZMuyeAJQGLOjmsW-3" value="Actor" style="shape=umlActor;verticalLabelPosition=bottom;verticalAlign=top;html=1;outlineConnect=0;" vertex="1" parent="1">
          <mxGeometry x="750" y="270" width="30" height="60" as="geometry" />
        </mxCell>
        <mxCell id="ChsFRZMuyeAJQGLOjmsW-16" style="rounded=0;orthogonalLoop=1;jettySize=auto;html=1;entryX=0;entryY=0.5;entryDx=0;entryDy=0;" edge="1" parent="1" source="ChsFRZMuyeAJQGLOjmsW-4" target="ChsFRZMuyeAJQGLOjmsW-8">
          <mxGeometry relative="1" as="geometry" />
        </mxCell>
        <mxCell id="ChsFRZMuyeAJQGLOjmsW-17" style="rounded=0;orthogonalLoop=1;jettySize=auto;html=1;entryX=0;entryY=1;entryDx=0;entryDy=0;" edge="1" parent="1" source="ChsFRZMuyeAJQGLOjmsW-4" target="ChsFRZMuyeAJQGLOjmsW-9">
          <mxGeometry relative="1" as="geometry" />
        </mxCell>
        <mxCell id="ChsFRZMuyeAJQGLOjmsW-18" style="rounded=0;orthogonalLoop=1;jettySize=auto;html=1;" edge="1" parent="1" source="ChsFRZMuyeAJQGLOjmsW-4" target="ChsFRZMuyeAJQGLOjmsW-7">
          <mxGeometry relative="1" as="geometry" />
        </mxCell>
        <mxCell id="ChsFRZMuyeAJQGLOjmsW-4" value="Actor" style="shape=umlActor;verticalLabelPosition=bottom;verticalAlign=top;html=1;outlineConnect=0;" vertex="1" parent="1">
          <mxGeometry x="90" y="410" width="30" height="60" as="geometry" />
        </mxCell>
      </root>
    </mxGraphModel>
  </diagram>
</mxfile>
